:version 1.10
:name ASF
:units
  mass 1
  length 1
  angle deg
:documentation
  ASF file generated by Kaydara
:root
  axis xyz
  order  tx ty tz rx ry rz
  position 0 0 0
  orientation 0 0 0
:bonedata
  begin
    id 1
    name abdomenDummy
    direction 1 -1.27917e-005 -1.26829e-007
    length 1.79048
    axis 0 0 0 xyz
  end
  begin
    id 2
    name abdomen
    direction 0.987238 0.159249 -9.68575e-008
    length 8.61378
    axis 2.73208e-005 5.54953e-006 9.16328 xyz
    dof rx ry rz
  end
  begin
    id 3
    name chest
    direction 0 0 0
    length 0
    axis 2.65071e-005 8.63688e-006 2.59796 xyz
    dof rx ry rz
  end
  begin
    id 4
    name neckDummyDummy
    direction 0.998972 0.0453274 -1.50742e-007
    length 9.56202
    axis 2.65071e-005 8.63688e-006 2.59796 xyz
  end
  begin
    id 5
    name neckDummy
    direction 0.99977 0.0214525 -1.61748e-007
    length 1.93574
    axis 2.62932e-005 9.26758e-006 1.22924 xyz
    dof rx ry rz
  end
  begin
    id 6
    name neck
    direction 0.99928 -0.0379406 -1.88707e-007
    length 3.70367
    axis 2.56966e-005 1.08122e-005 -2.17436 xyz
    dof rx ry rz
  end
  begin
    id 7
    name head
    direction 0.992648 -0.121037 -2.25408e-007
    length 6.35158
    axis 2.47068e-005 1.29149e-005 -6.95196 xyz
    dof rx ry rz
  end
  begin
    id 8
    name figureHair
    direction -0.86681 -0.498639 -7.83376e-008
    length 8.29884
    axis -2.7515e-005 4.48842e-006 -150.09 xyz
    dof rx ry rz
  end
  begin
    id 9
    name lCollarDummy
    direction 0.994611 0.0451299 -0.0933417
    length 9.60395
    axis 2.65071e-005 8.63688e-006 2.59796 xyz
  end
  begin
    id 10
    name lCollar
    direction 0.0384146 0.00127577 -0.999261
    length 6.95318
    axis 90.4899 87.7973 1.90202 xyz
    dof rx ry rz
  end
  begin
    id 11
    name lShldr
    direction -0.030648 0.0920515 -0.995282
    length 9.61158
    axis -161.793 84.4324 108.415 xyz
    dof rx ry rz
  end
  begin
    id 12
    name lForeArm
    direction 0.000163956 -0.0977586 -0.99521
    length 8.6068
    axis 0.134773 84.3899 -89.8525 xyz
    dof rx ry rz
  end
  begin
    id 13
    name lHand
    direction -0.0190533 -0.1444 -0.989336
    length 7.61479
    axis -7.3729 81.6249 -97.517 xyz
    dof rx ry rz
  end
  begin
    id 14
    name rCollarDummy
    direction 0.994871 0.0442627 0.0909555
    length 9.60761
    axis 2.65071e-005 8.63688e-006 2.59796 xyz
  end
  begin
    id 15
    name rCollar
    direction 0.0334251 -4.74072e-007 0.999441
    length 6.97058
    axis -178.152 -88.0845 -0.000674207 xyz
    dof rx ry rz
  end
  begin
    id 16
    name rShldr
    direction -0.026922 0.0719509 0.997045
    length 9.60913
    axis 71.2822 -85.594 110.514 xyz
    dof rx ry rz
  end
  begin
    id 17
    name rForeArm
    direction 0.00134679 -0.118986 0.992895
    length 8.57176
    axis -88.7923 -83.1659 -89.3516 xyz
    dof rx ry rz
  end
  begin
    id 18
    name rHand
    direction -0.0185183 -0.0768601 0.99687
    length 7.69687
    axis -74.5596 -85.4655 -103.546 xyz
    dof rx ry rz
  end
  begin
    id 19
    name lThighDummy
    direction -0.236086 -0.0385456 -0.970967
    length 4.99155
    axis 0 0 0 xyz
  end
  begin
    id 20
    name lThigh
    direction -0.993968 0.0148998 -0.108653
    length 13.572
    axis -91.4001 6.23768 179.141 xyz
    dof rx ry rz
  end
  begin
    id 21
    name lShin
    direction -0.992341 0.0904576 -0.0841193
    length 18.5862
    axis -91.4558 4.82538 174.792 xyz
    dof rx ry rz
  end
  begin
    id 22
    name lFoot
    direction 0.0209381 -0.999771 -0.00453005
    length 8.44474
    axis 4.86759 0.259522 -88.8001 xyz
    dof rx ry rz
  end
  begin
    id 23
    name rThighDummy
    direction -0.236086 -0.0385456 0.970967
    length 4.99155
    axis 0 0 0 xyz
  end
  begin
    id 24
    name rThigh
    direction -0.993968 0.0148995 0.108653
    length 13.5721
    axis -89.7059 -6.2377 179.141 xyz
    dof rx ry rz
  end
  begin
    id 25
    name rShin
    direction -0.9925 0.0899962 0.0827255
    length 18.6716
    axis -89.2745 -4.74775 174.819 xyz
    dof rx ry rz
  end
  begin
    id 26
    name rFoot
    direction 0.0301721 -0.999545 9.70865e-005
    length 8.45013
    axis -2.50066e-005 -0.00555246 -88.271 xyz
    dof rx ry rz
  end
:hierarchy
  begin
    root abdomenDummy lThighDummy rThighDummy
    abdomenDummy abdomen
    abdomen chest
    chest neckDummyDummy lCollarDummy rCollarDummy
    neckDummyDummy neckDummy
    neckDummy neck
    neck head
    head figureHair
    lCollarDummy lCollar
    lCollar lShldr
    lShldr lForeArm
    lForeArm lHand
    rCollarDummy rCollar
    rCollar rShldr
    rShldr rForeArm
    rForeArm rHand
    lThighDummy lThigh
    lThigh lShin
    lShin lFoot
    rThighDummy rThigh
    rThigh rShin
    rShin rFoot
  end

:SAMPLES-PER-SECOND 25
:FULLY-SPECIFIED
:DEGREES
48
root  59.3554 36.1795 10.3985 -174.189 2.1693 87.7035
abdomen  -2.20695 3.0023 -13.7555
chest  -2.82265 -3.78747 -7.46593
neckDummy  3.03321e-021 0 6.73878e-016
neck  0.113853 10.1601 23.8742
head  -4.73981 -12.5846 -7.7313
figureHair  0 0 -1.04948e-014
lCollar  -3.38943e-016 -6.49156e-016 -7.51406e-014
lShldr  17.8978 -17.7193 -71.4804
lForeArm  28.0783 -15.7408 -1.75734
lHand  0.254698 0.195082 5.2986
rCollar  2.67893e-016 -5.20816e-014 1.63997e-015
rShldr  -81.8397 75.1111 -48.4469
rForeArm  -0.546304 1.07183 21.8404
rHand  -0.3146 -22.784 5.94654
lThigh  -5.74654 4.578 -5.02388
lShin  -15.4782 3.04602 -7.1491
lFoot  3.19139 -0.485018 4.47999
rThigh  21.6451 -31.0434 -6.30949
rShin  10.492 48.1663 -2.29752
rFoot  -2.2203 -0.142745 -5.32341
49
root  57.9535 35.9402 10.8372 -175.392 2.14679 87.8558
abdomen  -2.51492 4.36369 -13.54
chest  -3.43393 -5.81325 -7.89014
neckDummy  3.03321e-021 0 6.73878e-016
neck  0.632976 9.18205 24.6335
head  -3.8631 -11.682 -7.68879
figureHair  0 0 -1.04948e-014
lCollar  -3.38943e-016 -6.49156e-016 -7.51406e-014
lShldr  17.0117 -19.7536 -70.7702
lForeArm  27.7567 -19.3945 -0.591548
lHand  0.254698 0.195082 5.2986
rCollar  2.67893e-016 -5.20816e-014 1.63997e-015
rShldr  -86.661 73.4701 -52.9229
rForeArm  1.95422 1.06273 22.6107
rHand  -0.38653 -23.8477 6.22152
lThigh  -5.86544 7.70584 -5.63012
lShin  -16.2692 2.10476 -7.23842
lFoot  2.5161 -0.43016 6.59853
rThigh  27.6814 -29.7709 -4.11764
rShin  7.55531 35.6873 -2.09518
rFoot  -0.703577 -0.241322 -3.25727
50
root  56.4447 35.5856 11.262 -176.324 2.5703 88.2778
abdomen  -2.94066 6.09426 -12.9644
chest  -4.09028 -7.71808 -8.21625
neckDummy  3.03321e-021 0 6.73878e-016
neck  1.13645 7.9466 24.9461
head  -2.88318 -10.6499 -7.1042
figureHair  0 0 -1.04948e-014
lCollar  -3.38943e-016 -6.49156e-016 -7.51406e-014
lShldr  14.5806 -21.2416 -69.919
lForeArm  29.5706 -22.8641 -0.507522
lHand  0.254698 0.195082 5.2986
rCollar  2.67893e-016 -5.20816e-014 1.63997e-015
rShldr  -87.3289 71.7646 -55.2294
rForeArm  2.45466 1.04507 24.0633
rHand  -0.342401 -24.3086 6.00649
lThigh  -5.83181 10.2577 -6.59775
lShin  -16.7103 1.99823 -7.43024
lFoot  1.5073 -0.291509 8.91887
rThigh  32.6316 -28.4386 -2.28332
rShin  4.34375 23.6407 -0.369787
rFoot  -1.47009 -0.0429506 -2.2852
51
root  54.8837 35.1879 11.6589 -176.871 3.15693 88.4558
abdomen  -3.44885 7.44372 -12.8398
chest  -4.76411 -9.32183 -8.28146
neckDummy  3.03321e-021 0 6.73878e-016
neck  1.43814 6.80859 25.3905
head  -2.11021 -9.829 -6.72793
figureHair  0 0 -1.04948e-014
lCollar  -3.38943e-016 -6.49156e-016 -7.51406e-014
lShldr  12.9428 -22.3666 -69.3499
lForeArm  30.6317 -25.6426 -0.38647
lHand  0.254698 0.195082 5.2986
rCollar  2.67893e-016 -5.20816e-014 1.63997e-015
rShldr  -83.7796 70.0388 -57.0495
rForeArm  0.396668 1.00845 26.9492
rHand  -0.402675 -23.7312 6.29832
lThigh  -5.91268 12.5407 -7.49061
lShin  -16.5233 2.87482 -7.62584
lFoot  0.0269602 -0.00810636 11.3418
rThigh  19.354 -27.725 -0.59732
rShin  17.3438 14.3428 7.48159
rFoot  -1.24399 -0.0151697 -1.77272
52
root  53.2498 34.8003 12.0276 -177.202 3.33244 88.0806
abdomen  -3.99967 7.69038 -13.1188
chest  -5.42448 -10.6087 -8.45436
neckDummy  3.03321e-021 0 6.73878e-016
neck  1.95923 6.34778 26.2268
head  -1.44673 -9.30385 -6.83323
figureHair  0 0 -1.04948e-014
lCollar  -3.38943e-016 -6.49156e-016 -7.51406e-014
lShldr  11.8364 -22.8989 -69.4411
lForeArm  31.0632 -27.6811 -0.292963
lHand  0.254698 0.195082 5.2986
rCollar  2.67893e-016 -5.20816e-014 1.63997e-015
rShldr  -76.0775 68.4877 -57.9064
rForeArm  -1.61794 0.933024 32.2693
rHand  -0.716638 -23.7603 7.66922
lThigh  -6.22475 14.3013 -7.95958
lShin  -16.4628 5.62411 -7.58918
lFoot  -0.594571 0.132984 13.0799
rThigh  13.887 -27.423 0.928303
rShin  20.4878 11.3814 8.50745
rFoot  0.00969815 -0.114768 -1.33917
53
root  51.5038 34.5403 12.3528 -177.295 2.84519 87.5388
abdomen  -4.55963 7.02122 -13.0317
chest  -6.1809 -12.0409 -9.06507
neckDummy  3.03321e-021 0 6.73878e-016
neck  2.79054 6.32351 26.8266
head  -0.72184 -8.6499 -6.68925
figureHair  0 0 -1.04948e-014
lCollar  -3.38943e-016 -6.49156e-016 -7.51406e-014
lShldr  11.4962 -22.168 -70.3599
lForeArm  31.4487 -29.1225 -0.224747
lHand  0.254698 0.195082 5.2986
rCollar  2.67893e-016 -5.20816e-014 1.63997e-015
rShldr  -65.1606 67.309 -56.0253
rForeArm  -2.65572 0.810397 39.9462
rHand  -0.992765 -24.626 8.75294
lThigh  -8.43928 15.6856 -7.44627
lShin  -14.1905 9.7329 -6.90884
lFoot  -1.92439 0.441648 13.4565
rThigh  16.3616 -27.6423 2.60326
rShin  16.8678 15.1706 7.10423
rFoot  -4.32202 0.344862 -1.54033
54
root  49.6003 34.3901 12.6233 -177.82 1.79862 87.1425
abdomen  -4.89211 5.58377 -12.4876
chest  -6.72886 -13.3688 -9.3345
neckDummy  3.03321e-021 0 6.73878e-016
neck  3.42714 6.06765 26.4725
head  -0.016409 -7.25199 -6.16291
figureHair  0 0 -1.04948e-014
lCollar  -3.38943e-016 -6.49156e-016 -7.51406e-014
lShldr  12.472 -19.7744 -72.0659
lForeArm  32.1277 -29.9257 -0.18591
lHand  0.254698 0.195082 5.2986
rCollar  2.67893e-016 -5.20816e-014 1.63997e-015
rShldr  -50.7047 66.544 -49.9096
rForeArm  -4.3848 0.665039 48.0593
rHand  -1.24433 -25.7887 9.60554
lThigh  -18.6702 15.2056 -5.48463
lShin  -2.76143 17.7992 -3.08228
lFoot  -7.3336 1.62462 12.2914
rThigh  20.7997 -28.8103 4.54384
rShin  11.0916 21.9881 3.89578
rFoot  -13.3575 1.18219 -2.22019
55
root  47.6456 34.3631 12.8566 -179.534 0.473335 87.1181
abdomen  -4.68555 3.32424 -12.0762
chest  -6.73212 -14.1038 -8.50995
neckDummy  3.03321e-021 0 6.73878e-016
neck  3.5302 5.1205 25.1804
head  0.628906 -4.73405 -5.64226
figureHair  0 0 -1.04948e-014
lCollar  -3.38943e-016 -6.49156e-016 -7.51406e-014
lShldr  14.4986 -15.9146 -74.2442
lForeArm  33.2756 -30.1704 -0.173987
lHand  0.254698 0.195082 5.2986
rCollar  2.67893e-016 -5.20816e-014 1.63997e-015
rShldr  -31.3747 65.6958 -38.2761
rForeArm  -7.44124 0.523187 55.3381
rHand  -1.66775 -27.2727 10.9908
lThigh  -26.1908 10.6396 -2.48173
lShin  5.64889 30.243 2.58048
lFoot  -12.6151 2.02086 5.06963
rThigh  23.2864 -29.4489 6.85332
rShin  5.62318 27.3016 0.00510282
rFoot  -19.0004 1.888 -1.88422
56
root  45.7416 34.4324 13.08 177.772 -0.724726 87.3531
abdomen  -4.03426 1.33851 -12.0645
chest  -6.38311 -14.9191 -7.28301
neckDummy  3.03321e-021 0 6.73878e-016
neck  3.30662 3.27548 23.7078
head  1.43323 -1.35373 -5.07991
figureHair  0 0 -1.04948e-014
lCollar  -3.38943e-016 -6.49156e-016 -7.51406e-014
lShldr  16.8309 -11.4135 -76.3794
lForeArm  35.2618 -30.0996 -0.177584
lHand  0.254698 0.195082 5.2986
rCollar  2.67893e-016 -5.20816e-014 1.63997e-015
rShldr  -8.12411 63.2249 -21.2308
rForeArm  -9.2907 0.383356 62.134
rHand  -2.20065 -29.1479 12.528
lThigh  -21.3291 1.47005 0.48148
lShin  0.100035 45.8749 2.8001
lFoot  -10.0042 0.131315 -10.7858
rThigh  23.655 -28.3945 8.27023
rShin  2.273 30.3937 -1.80286
rFoot  -18.9226 2.49727 0.561469
57
root  43.9119 34.5523 13.274 174.899 -1.59066 87.4756
abdomen  -3.25862 0.172054 -12.2579
chest  -5.76065 -15.9562 -6.9119
neckDummy  3.03321e-021 0 6.73878e-016
neck  3.08912 0.798818 22.8546
head  2.50509 1.91568 -4.63732
figureHair  0 0 -1.04948e-014
lCollar  -3.38943e-016 -6.49156e-016 -7.51406e-014
lShldr  19.5897 -7.4426 -77.8954
lForeArm  37.8173 -29.4665 -0.208472
lHand  0.254698 0.195082 5.2986
rCollar  2.67893e-016 -5.20816e-014 1.63997e-015
rShldr  13.9434 57.7069 -3.48917
rForeArm  -8.98594 0.250294 68.3916
rHand  -3.06718 -31.435 14.8726
lThigh  -18.3877 -9.31983 2.22095
lShin  -1.36161 59.7466 3.71877
lFoot  -2.06407 -0.187668 -24.1471
rThigh  23.0097 -25.7426 8.88537
rShin  0.129723 31.6149 -1.8493
rFoot  -17.0179 2.8967 3.35377
58
root  42.0389 34.9123 13.4212 171.551 -1.49311 87.4457
abdomen  -2.24044 -0.439208 -12.3156
chest  -4.69066 -15.8908 -7.18799
neckDummy  3.03321e-021 0 6.73878e-016
neck  2.92186 -1.61829 22.653
head  3.53923 4.23429 -4.71482
figureHair  0 0 -1.04948e-014
lCollar  -3.38943e-016 -6.49156e-016 -7.51406e-014
lShldr  22.9002 -4.29368 -78.4209
lForeArm  39.5783 -27.8706 -0.284453
lHand  0.254698 0.195082 5.2986
rCollar  2.67893e-016 -5.20816e-014 1.63997e-015
rShldr  30.2139 49.97 9.5096
rForeArm  -9.511 0.134528 73.7098
rHand  -4.28865 -33.627 18.0476
lThigh  -16.5288 -18.6406 2.0678
lShin  -2.93714 68.695 4.83729
lFoot  5.15426 0.526923 -24.7242
rThigh  19.0543 -21.8482 9.50034
rShin  0.0831899 30.3631 -1.28044
rFoot  -15.3452 2.98158 4.87172
59
root  40.1647 35.3845 13.5327 168.235 -0.62454 87.4742
abdomen  -1.37799 -1.07524 -12.2454
chest  -3.52517 -14.3444 -7.31965
neckDummy  3.03321e-021 0 6.73878e-016
neck  2.68297 -3.69045 22.3852
head  4.31562 5.91047 -4.85048
figureHair  0 0 -1.04948e-014
lCollar  -3.38943e-016 -6.49156e-016 -7.51406e-014
lShldr  25.6169 -1.17847 -78.1992
lForeArm  39.5621 -25.4339 -0.396203
lHand  0.254698 0.195082 5.2986
rCollar  2.67893e-016 -5.20816e-014 1.63997e-015
rShldr  40.9924 41.9699 17.6528
rForeArm  -11.8305 0.0333144 78.309
rHand  -5.31122 -35.1852 20.4962
lThigh  -15.0511 -26.1573 0.724267
lShin  -6.52677 71.6162 5.47891
lFoot  9.8945 0.478414 -18.2903
rThigh  12.9431 -17.5688 9.53232
rShin  2.17384 27.6723 -0.196977
rFoot  -13.5997 2.93213 6.04792
60
root  38.2909 35.785 13.6083 165.46 0.540701 87.6924
abdomen  -0.958835 -1.587 -12.0257
chest  -2.69929 -12.2277 -7.14126
neckDummy  3.03321e-021 0 6.73878e-016
neck  2.44922 -5.50027 21.681
head  4.97928 7.50539 -4.45634
figureHair  0 0 -1.04948e-014
lCollar  -3.38943e-016 -6.49156e-016 -7.51406e-014
lShldr  26.7391 2.24806 -77.7312
lForeArm  37.7764 -22.3859 -0.518992
lHand  0.254698 0.195082 5.2986
rCollar  2.67893e-016 -5.20816e-014 1.63997e-015
rShldr  48.247 34.6147 23.007
rForeArm  -13.4827 -0.0588463 82.4835
rHand  -6.16819 -36.2967 22.4674
lThigh  -12.9167 -31.6404 -1.44313
lShin  -8.78129 68.3819 4.88339
lFoot  11.6889 0.0952349 -13.4833
rThigh  8.74093 -13.084 8.14689
rShin  3.16831 24.3992 0.966457
rFoot  -11.694 2.85153 7.42956
61
root  36.3906 36.0672 13.6194 162.895 1.59712 87.9923
abdomen  -0.6542 -2.30474 -11.6812
chest  -1.97369 -9.80339 -6.89061
neckDummy  3.03321e-021 0 6.73878e-016
neck  2.43257 -6.88041 20.9697
head  5.63555 8.82409 -3.96997
figureHair  0 0 -1.04948e-014
lCollar  -3.38943e-016 -6.49156e-016 -7.51406e-014
lShldr  26.5172 5.58328 -77.1561
lForeArm  34.6135 -19.01 -0.753011
lHand  0.254698 0.195082 5.2986
rCollar  2.67893e-016 -5.20816e-014 1.63997e-015
rShldr  53.5062 28.1849 26.775
rForeArm  -13.6421 -0.144363 86.3632
rHand  -6.85537 -36.9548 24.0764
lThigh  -11.2073 -34.3731 -3.33492
lShin  -8.16266 59.7192 3.73715
lFoot  11.2599 -0.284816 -10.3832
rThigh  6.92977 -8.81344 6.2882
rShin  1.92964 21.2254 1.48695
rFoot  -10.3123 2.7309 8.23634
